# xmcd
#
# Track frame offsets: 
#        150
#        14603
#        28140
#        42065
#        57322
#        72663
#        86851
#        99175
#        112961
#        126767
#        141088
#        155569
#        168791
#        185099
#        200334
#
# Disc length: 2845 seconds
#
# Revision: 0
# Processed by: cddbd v1.5.2PL0 Copyright (c) Steve Scherf et al.
# Submitted via: ExactAudioCopyFreeDBPlugin 1.0
#
DISCID=d00b1b0f
DTITLE=Jads e Jadson - Diamante Bruto
DYEAR=2015
DGENRE=Sertanejo
TTITLE0=Diamante Bruto
TTITLE1=Explicita
TTITLE2=Mel e Limao
TTITLE3=No Seu Mundo (part Jorge e Mateus
TTITLE4=Se Toca Essa Moda
TTITLE5=Calma Pra Que
TTITLE6=To Com Pressa de Amar
TTITLE7=Caminhos Opostos
TTITLE8=Ze trovao
TTITLE9=Noite Fracassada
TTITLE10=Lagrimas e Chuva
TTITLE11=Inevitavelmente
TTITLE12=Bruto e Capiau
TTITLE13=Olhos Rasos D'agua
TTITLE14=Batimentos
EXTD=
EXTT0=
EXTT1=
EXTT2=
EXTT3=
EXTT4=
EXTT5=
EXTT6=
EXTT7=
EXTT8=
EXTT9=
EXTT10=
EXTT11=
EXTT12=
EXTT13=
EXTT14=
PLAYORDER=
